<svg aria-hidden="true" style="position: absolute; width: 0; height: 0; overflow: hidden;" version="1.1" xmlns="http://www.w3.org/2000/svg" xmlns:xlink="http://www.w3.org/1999/xlink">
<defs>
<symbol id="checked-icon" viewBox="0 0 39 32">
<path fill="#fff" style="fill: var(--color1, #fff)" d="M36.382 0.625c1.128 0.947 1.274 2.629 0.327 3.757l-22.4 26.667c-0.496 0.591-1.225 0.938-1.996 0.951s-1.511-0.309-2.028-0.882l-9.6-10.667c-0.985-1.095-0.896-2.781 0.198-3.766s2.781-0.896 3.766 0.198l7.548 8.387 20.428-24.318c0.947-1.128 2.629-1.274 3.757-0.327z"></path>
</symbol>
<symbol id="arrow-next-back" viewBox="0 0 34 32">
<path d="M17.341 0.659c0.879 0.879 0.879 2.303 0 3.182l-11.909 11.909 11.909 11.909c0.879 0.879 0.879 2.303 0 3.182s-2.303 0.879-3.182 0l-13.5-13.5c-0.879-0.879-0.879-2.303 0-3.182l13.5-13.5c0.879-0.879 2.303-0.879 3.182 0z"></path>
<path d="M1.875 15.75c0-1.243 1.007-2.25 2.25-2.25h27.375c1.243 0 2.25 1.007 2.25 2.25s-1.007 2.25-2.25 2.25h-27.375c-1.243 0-2.25-1.007-2.25-2.25z"></path>
</symbol>
<symbol id="voice" viewBox="0 0 32 32">
<path d="M22.667 28.333h-13.333c-4.867 0-7.667-2.8-7.667-7.667v-9.333c0-4.867 2.8-7.667 7.667-7.667h13.333c4.867 0 7.667 2.8 7.667 7.667v9.333c0 4.867-2.8 7.667-7.667 7.667zM9.333 5.667c-3.813 0-5.667 1.853-5.667 5.667v9.333c0 3.813 1.853 5.667 5.667 5.667h13.333c3.813 0 5.667-1.853 5.667-5.667v-9.333c0-3.813-1.853-5.667-5.667-5.667h-13.333z"></path>
<path d="M8 22.333c-0.547 0-1-0.453-1-1v-10.667c0-0.547 0.453-1 1-1s1 0.453 1 1v10.667c0 0.547-0.453 1-1 1z"></path>
<path d="M12 17c-0.547 0-1-0.453-1-1v-5.333c0-0.547 0.453-1 1-1s1 0.453 1 1v5.333c0 0.547-0.453 1-1 1z"></path>
<path d="M12 22.333c-0.547 0-1-0.453-1-1v-1.333c0-0.547 0.453-1 1-1s1 0.453 1 1v1.333c0 0.547-0.453 1-1 1z"></path>
<path d="M20 13c-0.547 0-1-0.453-1-1v-1.333c0-0.547 0.453-1 1-1s1 0.453 1 1v1.333c0 0.547-0.453 1-1 1z"></path>
<path d="M16 22.333c-0.547 0-1-0.453-1-1v-10.667c0-0.547 0.453-1 1-1s1 0.453 1 1v10.667c0 0.547-0.453 1-1 1z"></path>
<path d="M20 22.333c-0.547 0-1-0.453-1-1v-5.333c0-0.547 0.453-1 1-1s1 0.453 1 1v5.333c0 0.547-0.453 1-1 1z"></path>
<path d="M24 22.333c-0.547 0-1-0.453-1-1v-10.667c0-0.547 0.453-1 1-1s1 0.453 1 1v10.667c0 0.547-0.453 1-1 1z"></path>
</symbol>
<symbol id="next" viewBox="0 0 18 32">
<path d="M2 30l14-14-14-14z"></path>
</symbol>
<symbol id="mic" viewBox="0 0 32 32">
<path d="M16 21.667c-3.493 0-6.333-2.84-6.333-6.333v-7.333c0-3.493 2.84-6.333 6.333-6.333s6.333 2.84 6.333 6.333v7.333c0 3.493-2.84 6.333-6.333 6.333zM16 3.667c-2.387 0-4.333 1.947-4.333 4.333v7.333c0 2.387 1.947 4.333 4.333 4.333s4.333-1.947 4.333-4.333v-7.333c0-2.387-1.947-4.333-4.333-4.333z"></path>
<path d="M16 26.334c-6.173 0-11.2-5.027-11.2-11.2v-2.267c0-0.547 0.453-1 1-1s1 0.453 1 1v2.267c0 5.067 4.133 9.2 9.2 9.2s9.2-4.133 9.2-9.2v-2.267c0-0.547 0.453-1 1-1s1 0.453 1 1v2.267c0 6.173-5.027 11.2-11.2 11.2z"></path>
<path d="M17.853 9.573c-0.107 0-0.227-0.013-0.347-0.053-0.973-0.36-2.040-0.36-3.013 0-0.52 0.187-1.093-0.080-1.28-0.6s0.080-1.093 0.6-1.28c1.413-0.507 2.973-0.507 4.387 0 0.52 0.187 0.787 0.76 0.6 1.28-0.16 0.4-0.547 0.653-0.947 0.653z"></path>
<path d="M17.067 12.4c-0.093 0-0.173-0.013-0.267-0.040-0.533-0.147-1.080-0.147-1.613 0s-1.080-0.173-1.227-0.707c-0.147-0.52 0.173-1.067 0.707-1.213 0.867-0.24 1.8-0.24 2.667 0 0.533 0.147 0.853 0.693 0.707 1.227-0.12 0.44-0.533 0.733-0.973 0.733z"></path>
<path d="M16 30.333c-0.547 0-1-0.453-1-1v-4c0-0.547 0.453-1 1-1s1 0.453 1 1v4c0 0.547-0.453 1-1 1z"></path>
</symbol>
<symbol id="main-logo" viewBox="0 0 199 32">
<path fill="#000" style="fill: var(--color2, #000)" d="M111.856 0.335l-9.16 14.090-1.154-14.123-12.542-0.039-6.633 24.401 4.272 0.014 5.258-19.264 1.653 19.285 7.058 0.023 12.316-19.209-5.223 19.231 9.903 0.031 6.519-24.401-12.267-0.039z"></path>
<path fill="#000" style="fill: var(--color2, #000)" d="M149.827 9.722c0.007-2.091-1.31-3.037-3.914-3.045 0 0-11.205-0.035-15.899-0.050-4.695-0.015-5.835 3.288-6.391 5.223-0.554 1.934-1.023 3.767-1.542 5.752-0.52 1.986-0.867 3.030-0.87 4.143-0.008 2.484 1.618 3.037 4.719 3.048l14.735 0.047c4.951 0.015 6.143-3.065 6.628-4.828s1.144-4.091 1.647-6.129c0.503-2.037 0.884-3.287 0.887-4.16v0.001zM139.523 13.533c-0.313 1.187-1.399 5.227-1.676 6.174-0.278 0.948-0.622 1.574-1.661 1.572l-4.164-0.013c-0.778-0.002-1.113-0.244-1.112-0.784 0.002-0.539 0.616-2.49 0.92-3.671s1.197-4.433 1.405-5.265c0.207-0.829 0.696-1.353 1.778-1.35 1.078 0.003 4.245 0.013 4.245 0.013 0.617 0.002 0.89 0.403 0.888 0.836 0 0.206-0.312 1.301-0.624 2.488h0.001z"></path>
<path fill="#000" style="fill: var(--color2, #000)" d="M172.164 6.768c0 0-11.514-0.045-13.964-0.052-2.449-0.008-4.957 1.937-5.668 4.488-0.71 2.551-3.7 13.67-3.7 13.67l9.509 0.030c0 0 2.181-8.071 2.805-10.331 0.624-2.259 1.985-2.778 4.726-2.769 2.741 0.008 4.914 0.015 4.914 0.015l1.378-5.050z"></path>
<path fill="#000" style="fill: var(--color2, #000)" d="M194.99 6.832c-2.833-0.009-10.165-0.033-15.306-0.048-5.14-0.016-6.157 3.876-6.516 5.165s-0.635 2.259-1.352 5.044c-0.717 2.785-1.086 3.789-1.089 4.909-0.006 2.033 1.11 3.036 4.262 3.047s19.749 0.063 19.749 0.063l0.953-3.544c0 0-11.817-0.037-13.346-0.042-1.531-0.005-1.78-0.605-1.778-1.222 0-0.204 0.231-1.15 0.543-2.346l15.963 0.050c0 0 0.919-3.441 1.284-4.811 0.363-1.369 0.64-2.071 0.643-3.145 0.007-2.056-1.177-3.11-4.010-3.12zM188.731 14.351l-6.67-0.021c0.385-1.402 0.712-2.582 0.784-2.876 0.197-0.799 0.906-1.116 1.774-1.114s2.353 0.007 3.61 0.012c1.257 0.004 1.324 0.381 1.323 0.804s-0.821 3.195-0.821 3.195z"></path>
<path fill="#45b549" style="fill: var(--color3, #45b549)" d="M78.715 27.117c0.923-3.127 5.622-20.634 5.622-20.634l-9.475-0.030c0 0-3.050 11.041-3.328 12.189s-0.539 2.431-1.927 2.426c-1.388-0.005-2.433-0.008-3.358-0.010-0.926-0.002-1.662-0.057-1.142-1.82 0.519-1.763 3.45-12.805 3.45-12.805l-9.458-0.030c0 0-2.223 8.159-3.243 11.991-0.532 1.998-1.166 6.18 5.047 6.2 2.673 0.008 9.047 0.028 9.047 0.028s-0.139 0.57-0.509 1.826c-0.369 1.256-0.964 1.516-2.438 1.511s-13.335-0.042-13.335-0.042l-0.988 3.572c0 0 17.91 0.057 20.012 0.063 2.102 0.007 5.099-1.309 6.022-4.436l0.001 0.002z"></path>
<path fill="#45b549" style="fill: var(--color3, #45b549)" d="M44.89 9.924c0.697 0.002 1.13 0.403 0.921 1.271-0.208 0.868-0.266 1.050-0.266 1.050s-6.733-0.021-10.742-0.034c-4.009-0.013-5.644 2.209-6.314 4.606-0.67 2.396-0.993 3.469-0.997 4.691s0.23 2.976 4.343 2.99l15.637 0.049c2.422 0.008 4.781-2.104 5.359-4.181 0.577-2.077 2.471-8.262 2.476-10.227 0.006-1.964-1.085-3.75-4.603-3.761-3.518-0.012-18.983-0.077-18.983-0.077l-0.963 3.577c0 0 13.436 0.042 14.133 0.044l-0.001 0.001zM40.075 15.78c1.588 0.005 4.483 0.014 4.483 0.014s-0.734 2.75-0.942 3.504c-0.208 0.754-0.565 1.7-2.084 1.696l-2.958-0.009c-0.652-0.002-1.393-0.153-1.39-0.929 0-0.309 0.266-1.175 0.578-2.386s0.726-1.894 2.314-1.889l-0.001-0.001z"></path>
<path fill="#45b549" style="fill: var(--color3, #45b549)" d="M12.14 15.954c0 0 6.476 0.021 10.794 0.034 4.317 0.014 6.415-2.224 7.298-4.86 0.138-0.415 0.279-0.847 0.416-1.283l-10.161-0.033c-0.672 1.489-1.942 2.050-2.885 2.047-0.942-0.004-4.728-0.015-4.728-0.015l0.381-1.421-3.452-0.010c-0.328 0-0.893-0.002-0.891-0.576 0.002-0.575 0.606-0.915 1.166-0.914 0.56 0.002 3.577 0.012 3.577 0.012l0.506-1.883-3.61-0.012c-0.24 0-0.719-0.048-0.718-0.574 0.001-0.525 0.552-0.902 1.020-0.901s3.705 0.012 3.705 0.012l0.395-1.47c0 0 2.707 0.008 4.523 0.014 1.817 0.006 2.019 1.137 2.015 2.148l10.134 0.031c0.249-1.085 0.41-2.040 0.412-2.689 0.005-1.559-0.828-3.532-4.393-3.544-3.563-0.012-20.988-0.066-20.988-0.066l-6.656 24.395 9.869 0.031 2.271-8.474v0.002z"></path>
</symbol>
<symbol id="logo" viewBox="0 0 32 32">
<path fill="#46b449" style="fill: var(--color4, #46b449)" d="M32 16.003c-0.006 8.856-7.169 16.003-16.039 15.997-8.828-0.006-16.007-7.203-15.961-16.089 0.046-8.805 7.239-15.958 16.117-15.911 8.735 0.047 15.889 7.226 15.882 16.002zM4.738 24.544c0.089 0.010 0.146 0.022 0.203 0.023 2.16 0.013 4.321 0.024 6.481 0.042 0.168 0.002 0.229-0.056 0.272-0.216 0.482-1.823 0.975-3.643 1.458-5.466 0.053-0.2 0.11-0.309 0.359-0.307 1.561 0.017 3.122 0.019 4.684 0.012 1.189-0.005 2.382 0.034 3.565-0.059 1.858-0.145 3.244-1.058 4.021-2.791 0.2-0.446 0.338-0.92 0.514-1.405-0.113-0.010-0.163-0.018-0.212-0.018-2.236-0.007-4.473-0.011-6.71-0.021-0.158-0.001-0.237 0.066-0.313 0.197-0.478 0.826-1.178 1.265-2.155 1.247-0.945-0.017-1.89-0.006-2.835-0.009-0.096 0-0.192-0.015-0.313-0.025 0.087-0.34 0.165-0.647 0.251-0.984-0.122 0-0.213 0-0.304 0-0.734-0.001-1.468 0.003-2.203-0.007-0.221-0.003-0.448-0.044-0.522-0.31-0.064-0.232 0.032-0.499 0.275-0.624 0.172-0.089 0.379-0.149 0.573-0.153 0.751-0.016 1.502-0.002 2.253-0.007 0.081 0 0.219-0.031 0.234-0.079 0.123-0.381 0.222-0.77 0.341-1.201-0.141 0-0.231 0-0.321 0-0.692 0-1.384 0.001-2.076-0.003-0.108-0.001-0.22-0.011-0.324-0.039-0.258-0.067-0.356-0.231-0.308-0.492 0.057-0.317 0.356-0.56 0.715-0.562 0.667-0.005 1.334 0 2 0 0.4 0 0.653-0.189 0.759-0.568 0.014-0.049 0.033-0.097 0.037-0.147 0.026-0.262 0.165-0.339 0.426-0.334 0.995 0.022 1.991 0.021 2.987 0.031 0.844 0.009 1.298 0.447 1.322 1.292 0.005 0.183 0.071 0.228 0.239 0.228 2.228-0.002 4.456 0 6.684 0.007 0.161 0 0.222-0.057 0.245-0.211 0.073-0.482 0.195-0.96 0.23-1.445 0.077-1.048-0.343-2.015-1.471-2.416-0.383-0.136-0.8-0.236-1.205-0.245-1.789-0.039-3.577-0.046-5.367-0.051-3.182-0.010-6.363-0.008-9.545-0.019-0.201-0-0.291 0.051-0.347 0.256-1.384 5.103-2.777 10.205-4.167 15.306-0.141 0.518-0.283 1.036-0.429 1.57z"></path>
</symbol>
<symbol id="next-step" viewBox="0 0 9 16">
<path d="M1 15L8 8L1 1" stroke-width="2" stroke-linecap="round" stroke-linejoin="round"/>
</symbol>
</defs>
</svg>
