<svg width="25" height="25" viewBox="0 0 25 25" fill="none" xmlns="http://www.w3.org/2000/svg">
<path d="M25 12.5021C24.9952 19.4205 19.3994 25.0044 12.4698 25C5.57299 24.9952 -0.0358881 19.3729 0.000172916 12.4303C0.036234 5.55156 5.65582 -0.0366799 12.5918 0.000181316C19.4161 0.0366462 25.0048 5.64549 25 12.5021ZM3.70139 19.1751C3.77073 19.1831 3.81551 19.1926 3.8599 19.193C5.54763 19.2033 7.23537 19.2116 8.92311 19.2255C9.05467 19.2267 9.10222 19.1819 9.13551 19.057C9.51197 17.6325 9.89715 16.2108 10.2744 14.7863C10.3156 14.6301 10.36 14.5445 10.555 14.5465C11.7747 14.5596 12.9944 14.5611 14.2142 14.556C15.143 14.5524 16.0755 14.5822 16.9996 14.51C18.4512 14.3967 19.5338 13.6832 20.1409 12.3293C20.297 11.9809 20.4052 11.6107 20.5423 11.2317C20.4539 11.2242 20.4151 11.2179 20.3767 11.2179C18.6295 11.2127 16.8823 11.2092 15.1347 11.2016C15.0115 11.2012 14.9497 11.2528 14.8902 11.3558C14.5169 12.0015 13.9697 12.3439 13.2064 12.3301C12.4682 12.3166 11.7295 12.3257 10.9913 12.3233C10.9164 12.3233 10.8415 12.3118 10.7464 12.3039C10.8141 12.0379 10.8752 11.7985 10.9421 11.535C10.847 11.535 10.7757 11.535 10.7044 11.535C10.1306 11.5342 9.55715 11.5377 8.98334 11.5294C8.81056 11.527 8.63343 11.4949 8.57557 11.2872C8.52525 11.1061 8.60094 10.8976 8.79035 10.7997C8.92469 10.73 9.08677 10.6836 9.23775 10.6804C9.82424 10.6681 10.4111 10.6788 10.998 10.6753C11.0614 10.6753 11.1688 10.6507 11.1807 10.6138C11.2766 10.3158 11.3543 10.0122 11.4474 9.67565C11.3372 9.67565 11.2671 9.67565 11.1969 9.67565C10.6564 9.67565 10.1155 9.67644 9.57498 9.67367C9.49057 9.67327 9.40339 9.66495 9.32176 9.64355C9.12045 9.59123 9.04397 9.4632 9.08082 9.25948C9.1256 9.01175 9.35861 8.82229 9.63957 8.82031C10.1603 8.81674 10.6814 8.82031 11.2021 8.82031C11.5149 8.82058 11.7125 8.67273 11.7949 8.37679C11.8056 8.33874 11.8203 8.30108 11.8242 8.26224C11.8444 8.05772 11.9534 7.99708 12.1567 8.00144C12.9342 8.01888 13.7125 8.01809 14.4904 8.02601C15.1494 8.03275 15.5044 8.3752 15.5235 9.03514C15.5274 9.17822 15.5789 9.2131 15.7101 9.2131C17.451 9.21191 19.1914 9.2131 20.9322 9.21865C21.0582 9.21865 21.1054 9.17426 21.1236 9.05377C21.1803 8.67683 21.2758 8.30346 21.3035 7.92454C21.3638 7.10607 21.0353 6.35022 20.1543 6.03709C19.8548 5.93087 19.529 5.85239 19.2132 5.84565C17.8159 5.81513 16.4183 5.80958 15.0202 5.80562C12.5344 5.79809 10.0489 5.79928 7.56309 5.79096C7.40577 5.79056 7.33563 5.83099 7.29204 5.99112C6.2106 9.97807 5.12283 13.9634 4.03624 17.9488C3.92607 18.3535 3.81512 18.7582 3.70139 19.1751Z" fill="#46B449"/>
</svg>
