<svg width="199" height="32" viewBox="0 0 199 32" fill="none" xmlns="http://www.w3.org/2000/svg">
<path d="M111.856 0.334707L102.696 14.4247L101.542 0.302186L89.0004 0.262695L82.3672 24.6633L86.6391 24.6772L91.8971 5.41274L93.5499 24.6981L100.608 24.7213L112.924 5.51263L107.701 24.7434L117.604 24.7748L124.123 0.374197L111.856 0.334707Z" fill="black"/>
<path d="M149.827 9.72237C149.834 7.63169 148.517 6.68508 145.913 6.67695C145.913 6.67695 134.708 6.6421 130.014 6.627C125.319 6.61191 124.179 9.91518 123.623 11.8502C123.069 13.7841 122.6 15.6169 122.081 17.6019C121.561 19.5881 121.214 20.6322 121.211 21.745C121.203 24.2294 122.829 24.7822 125.93 24.7927L140.665 24.8392C145.616 24.8543 146.808 21.774 147.293 20.0109C147.779 18.2477 148.437 15.9201 148.94 13.8817C149.443 11.8444 149.824 10.5947 149.827 9.72121V9.72237ZM139.523 13.5332C139.21 14.7203 138.124 18.7599 137.847 19.7077C137.569 20.6555 137.225 21.2815 136.186 21.2792L132.022 21.2664C131.244 21.2641 130.909 21.0225 130.91 20.4824C130.912 19.9435 131.526 17.9922 131.83 16.8109C132.133 15.6297 133.027 12.3775 133.235 11.5459C133.442 10.7166 133.931 10.1928 135.013 10.1963C136.091 10.1997 139.258 10.209 139.258 10.209C139.875 10.2114 140.148 10.6121 140.146 11.0453C140.146 11.2509 139.834 12.3462 139.522 13.5332H139.523Z" fill="black"/>
<path d="M172.164 6.76811C172.164 6.76811 160.65 6.72281 158.2 6.71585C155.751 6.70772 153.243 8.65321 152.532 11.2038C151.822 13.7545 148.832 24.8734 148.832 24.8734L158.341 24.9036C158.341 24.9036 160.522 16.8324 161.146 14.5722C161.77 12.3131 163.131 11.7939 165.872 11.8032C168.613 11.8113 170.786 11.8183 170.786 11.8183L172.164 6.76811Z" fill="black"/>
<path d="M194.99 6.83185C192.157 6.82256 184.825 6.79933 179.684 6.78423C174.544 6.76797 173.527 10.6601 173.168 11.9494C172.81 13.2386 172.533 14.2085 171.816 16.9937C171.099 19.779 170.73 20.7825 170.727 21.9022C170.721 23.9348 171.837 24.9383 174.989 24.9488C178.141 24.9592 194.738 25.0115 194.738 25.0115L195.691 21.4678C195.691 21.4678 183.874 21.4306 182.345 21.426C180.814 21.4213 180.565 20.8208 180.567 20.2041C180.567 19.9997 180.798 19.0542 181.11 17.8579L197.073 17.9078C197.073 17.9078 197.992 14.4663 198.357 13.0969C198.72 11.7275 198.997 11.026 199 9.95161C199.007 7.89577 197.823 6.84114 194.99 6.83185ZM188.731 14.3513L182.061 14.3304C182.446 12.9285 182.773 11.7484 182.845 11.4546C183.042 10.6555 183.751 10.3384 184.619 10.3407C185.487 10.343 186.972 10.3477 188.229 10.3523C189.486 10.3558 189.553 10.7333 189.552 11.1561C189.551 11.5789 188.731 14.3513 188.731 14.3513Z" fill="black"/>
<path d="M78.7154 27.1168C79.6388 23.9901 84.337 6.48292 84.337 6.48292L74.8616 6.45272C74.8616 6.45272 71.8116 17.4938 71.534 18.6414C71.2564 19.7889 70.9951 21.0724 69.6071 21.0677C68.2192 21.0631 67.1738 21.0596 66.2493 21.0573C65.3236 21.055 64.5872 21.0004 65.1076 19.2372C65.6268 17.4741 68.5572 6.43181 68.5572 6.43181L59.0993 6.40161C59.0993 6.40161 56.8762 14.5611 55.8564 18.3928C55.3245 20.3906 54.6903 24.5731 60.903 24.5929C63.5756 24.601 69.9498 24.6207 69.9498 24.6207C69.9498 24.6207 69.8104 25.191 69.441 26.4466C69.0717 27.7022 68.477 27.9623 67.0031 27.9577C65.5292 27.9531 53.6682 27.9159 53.6682 27.9159L52.6798 31.4875C52.6798 31.4875 70.5897 31.5444 72.692 31.5502C74.7943 31.5572 77.7909 30.2412 78.7143 27.1145L78.7154 27.1168Z" fill="#45B549"/>
<path d="M44.8901 9.92444C45.587 9.92677 46.0202 10.3275 45.8112 11.1951C45.6033 12.0627 45.5452 12.2451 45.5452 12.2451C45.5452 12.2451 38.8121 12.2242 34.8027 12.2114C30.7933 12.1986 29.1591 14.4206 28.489 16.8179C27.8188 19.214 27.4959 20.2873 27.4924 21.5091C27.4889 22.731 27.7224 24.4849 31.8352 24.4988L47.4721 24.5476C49.8938 24.5557 52.2527 22.4441 52.8311 20.3662C53.4084 18.2895 55.3016 12.1046 55.3074 10.1393C55.3132 8.17524 54.2226 6.38887 50.7045 6.37842C47.1864 6.3668 31.7213 6.30176 31.7213 6.30176L30.7585 9.87915C30.7585 9.87915 44.1944 9.92096 44.8913 9.92328L44.8901 9.92444ZM40.0747 15.7795C41.6624 15.7842 44.558 15.7935 44.558 15.7935C44.558 15.7935 43.8239 18.5439 43.616 19.2977C43.4081 20.0515 43.0515 20.9981 41.5323 20.9934L38.574 20.9841C37.9224 20.9818 37.1814 20.8308 37.1838 20.055C37.1838 19.746 37.4497 18.8795 37.7622 17.6693C38.0746 16.459 38.4881 15.7749 40.0758 15.7807L40.0747 15.7795Z" fill="#45B549"/>
<path d="M12.1397 15.9542C12.1397 15.9542 18.6161 15.9751 22.9333 15.9879C27.2505 16.0018 29.3481 13.7637 30.2309 11.1282C30.3691 10.7136 30.5096 10.2815 30.6467 9.84479L20.4861 9.81226C19.8136 11.3013 18.5441 11.8623 17.601 11.8588C16.659 11.8553 12.8726 11.8437 12.8726 11.8437L13.2536 10.4232L9.80168 10.4128C9.47415 10.4128 8.90851 10.4104 8.91083 9.83665C8.91316 9.26172 9.51712 8.9214 10.077 8.92256C10.6368 8.92489 13.6543 8.93418 13.6543 8.93418L14.1607 7.0514L10.5508 7.03979C10.3104 7.03979 9.83188 6.99217 9.83304 6.46601C9.83421 5.94102 10.3847 5.56354 10.8528 5.5647C11.3209 5.56586 14.5579 5.57631 14.5579 5.57631L14.9528 4.10587C14.9528 4.10587 17.6602 4.114 19.4756 4.1198C21.2921 4.12561 21.4942 5.2569 21.4908 6.2674L31.6246 6.29876C31.8732 5.21393 32.0346 4.25918 32.037 3.60991C32.0416 2.05119 31.2088 0.0778206 27.6443 0.0662058C24.0809 0.0545909 6.65641 0 6.65641 0L0 24.3948L9.86905 24.4261L12.1397 15.9519V15.9542Z" fill="#45B549"/>
</svg>
