<svg viewBox="0 0 22 22" xmlns="http://www.w3.org/2000/svg">
<path d="M10.9999 14.8958C8.59825 14.8958 6.64575 12.9433 6.64575 10.5416V5.49992C6.64575 3.09825 8.59825 1.14575 10.9999 1.14575C13.4016 1.14575 15.3541 3.09825 15.3541 5.49992V10.5416C15.3541 12.9433 13.4016 14.8958 10.9999 14.8958ZM10.9999 2.52075C9.35909 2.52075 8.02075 3.85909 8.02075 5.49992V10.5416C8.02075 12.1824 9.35909 13.5208 10.9999 13.5208C12.6408 13.5208 13.9791 12.1824 13.9791 10.5416V5.49992C13.9791 3.85909 12.6408 2.52075 10.9999 2.52075Z"/>
<path d="M11 18.1043C6.75588 18.1043 3.30005 14.6484 3.30005 10.4043V8.84595C3.30005 8.47011 3.61172 8.15845 3.98755 8.15845C4.36338 8.15845 4.67505 8.47011 4.67505 8.84595V10.4043C4.67505 13.8876 7.51672 16.7293 11 16.7293C14.4834 16.7293 17.325 13.8876 17.325 10.4043V8.84595C17.325 8.47011 17.6367 8.15845 18.0125 8.15845C18.3884 8.15845 18.7 8.47011 18.7 8.84595V10.4043C18.7 14.6484 15.2442 18.1043 11 18.1043Z"/>
<path d="M12.2741 6.58163C12.2008 6.58163 12.1183 6.57246 12.0358 6.54496C11.3666 6.29746 10.6333 6.29746 9.96414 6.54496C9.60664 6.67329 9.21247 6.48996 9.08414 6.13246C8.9558 5.77496 9.13914 5.38079 9.49664 5.25246C10.4683 4.90413 11.5408 4.90413 12.5125 5.25246C12.87 5.38079 13.0533 5.77496 12.925 6.13246C12.815 6.40746 12.5491 6.58163 12.2741 6.58163Z"/>
<path d="M11.7333 8.52496C11.6692 8.52496 11.6142 8.51579 11.55 8.49746C11.1833 8.39663 10.8075 8.39663 10.4408 8.49746C10.0742 8.59829 9.69832 8.37829 9.59749 8.01163C9.49666 7.65413 9.71666 7.27829 10.0833 7.17746C10.6792 7.01246 11.3208 7.01246 11.9167 7.17746C12.2833 7.27829 12.5033 7.65413 12.4025 8.02079C12.32 8.32329 12.0358 8.52496 11.7333 8.52496Z"/>
<path d="M11 20.8542C10.6242 20.8542 10.3125 20.5426 10.3125 20.1667V17.4167C10.3125 17.0409 10.6242 16.7292 11 16.7292C11.3758 16.7292 11.6875 17.0409 11.6875 17.4167V20.1667C11.6875 20.5426 11.3758 20.8542 11 20.8542Z"/>
</svg>
